# xmcd
#
# Track frame offsets: 
#        150
#        10250
#        21367
#        33223
#        46011
#        56108
#        68544
#        79379
#        89771
#        100997
#        113640
#        125686
#        138092
#        148035
#        159497
#        167874
#        175550
#        185748
#        197796
#        207395
#        217502
#        228284
#        237983
#        251715
#        263362
#        275187
#
# Disc length: 3790 seconds
#
# Revision: 0
# Processed by: cddbd v1.5.2PL0 Copyright (c) Steve Scherf et al.
# Submitted via: ExactAudioCopyFreeDBPlugin 1.0
#
DISCID=6f0ecc1a
DTITLE=Johnny Cash - Complete Sun and Columbia Singles
DYEAR=2017
DGENRE=Country
TTITLE0=Hey Porter
TTITLE1=Cry Cry Cry
TTITLE2=So Doggone Lonesome
TTITLE3=Folsum Prison Blues
TTITLE4=Get Rythum
TTITLE5=I Walk The Line
TTITLE6=Train Of Love
TTITLE7=There You Go
TTITLE8=Don't Make Me Go
TTITLE9=Next In Line
TTITLE10=Home Of The Blues
TTITLE11=Give My Love To Rose
TTITLE12=Ballad Of A Teenage Queen
TTITLE13=Big River
TTITLE14=Guess Things Happen That Way
TTITLE15=Come In Stranger
TTITLE16=The Ways Of A Woman In Love
TTITLE17=You're The Nearest Thing To Heaven
TTITLE18=What Do I Care
TTITLE19=All Over Again
TTITLE20=Just Thought You'd Like To Know
TTITLE21=It's Just About Time
TTITLE22=Don't Take Your Guns To Town
TTITLE23=I Still Miss Someone
TTITLE24=Thanks A Lot
TTITLE25=Luther Played The Boogie
EXTD=
EXTT0=
EXTT1=
EXTT2=
EXTT3=
EXTT4=
EXTT5=
EXTT6=
EXTT7=
EXTT8=
EXTT9=
EXTT10=
EXTT11=
EXTT12=
EXTT13=
EXTT14=
EXTT15=
EXTT16=
EXTT17=
EXTT18=
EXTT19=
EXTT20=
EXTT21=
EXTT22=
EXTT23=
EXTT24=
EXTT25=
PLAYORDER=
